<?xml version="1.0" encoding="UTF-8"?>
<svg height="16px" viewBox="0 0 16 16" width="16px" xmlns="http://www.w3.org/2000/svg">
    <path d="m 8 0 c -4.417969 0 -8 3.582031 -8 8 s 3.582031 8 8 8 s 8 -3.582031 8 -8 s -3.582031 -8 -8 -8 z m 0 2 c 3.3125 0 6 2.6875 6 6 s -2.6875 6 -6 6 s -6 -2.6875 -6 -6 s 2.6875 -6 6 -6 z m -1 1 v 1.148438 c -1.195312 0.351562 -1.996094 1.292968 -2 2.351562 c 0 1.378906 1.34375 2.5 3 2.5 c 0.550781 0 1 0.222656 1 0.5 s -0.449219 0.5 -1 0.5 s -1 -0.222656 -1 -0.5 l -1.800781 0.898438 c 0.320312 0.679687 0.976562 1.210937 1.800781 1.453124 v 1.148438 h 2 v -1.148438 c 1.195312 -0.351562 1.996094 -1.292968 2 -2.351562 c 0 -1.378906 -1.34375 -2.5 -3 -2.5 c -0.550781 0 -1 -0.222656 -1 -0.5 s 0.449219 -0.5 1 -0.5 s 1 0.222656 1 0.5 l 1.800781 -0.898438 c -0.320312 -0.679687 -0.976562 -1.210937 -1.800781 -1.453124 v -1.148438 z m 0 0" fill="#241f31"/>
</svg>
