<?xml version="1.0" encoding="UTF-8"?>
<svg height="128px" viewBox="0 0 128 128" width="128px" xmlns="http://www.w3.org/2000/svg" xmlns:xlink="http://www.w3.org/1999/xlink">
    <linearGradient id="a" gradientUnits="userSpaceOnUse" x1="8.000008" x2="120" y1="66" y2="66">
        <stop offset="0" stop-color="#805906"/>
        <stop offset="0.265525" stop-color="#d6a220"/>
        <stop offset="0.714286" stop-color="#946b05"/>
        <stop offset="1" stop-color="#735605"/>
    </linearGradient>
    <linearGradient id="b" gradientUnits="userSpaceOnUse" x1="63.999992" x2="63.999996" y1="5.999878" y2="118">
        <stop offset="0" stop-color="#dbb010"/>
        <stop offset="1" stop-color="#c2990d"/>
    </linearGradient>
    <linearGradient id="c" gradientUnits="userSpaceOnUse" x1="8" x2="120" y1="36" y2="36">
        <stop offset="0" stop-color="#a07506"/>
        <stop offset="0.744467" stop-color="#ba8b23"/>
        <stop offset="1" stop-color="#9c7106"/>
    </linearGradient>
    <linearGradient id="d" gradientUnits="userSpaceOnUse" x1="15.999999" x2="112" y1="62.999985" y2="62.999985">
        <stop offset="0" stop-color="#956c06"/>
        <stop offset="0.744467" stop-color="#c08f24"/>
        <stop offset="1" stop-color="#a87a07"/>
    </linearGradient>
    <linearGradient id="e" gradientUnits="userSpaceOnUse" x1="63.999985" x2="63.999985" y1="117.999817" y2="6">
        <stop offset="0" stop-color="#f6d846"/>
        <stop offset="1" stop-color="#f8e775"/>
    </linearGradient>
    <path d="m 64 6 c 30.929688 0 56 25.070312 56 56 v 8 c 0 30.929688 -25.070312 56 -56 56 s -56 -25.070312 -56 -56 v -8 c 0 -30.929688 25.070312 -56 56 -56 z m 0 0" fill="url(#a)"/>
    <path d="m 120 62 c 0 30.929688 -25.070312 56 -56 56 s -56 -25.070312 -56 -56 s 25.070312 -56 56 -56 s 56 25.070312 56 56 z m 0 0" fill="url(#b)"/>
    <path d="m 64 8 c -30.929688 0 -56 25.070312 -56 56 h 4 c 0 -28.71875 23.28125 -52 52 -52 s 52 23.28125 52 52 h 4 c 0 -30.929688 -25.070312 -56 -56 -56 z m 0 0" fill="url(#c)"/>
    <path d="m 64 14 c 26.507812 0 48 21.492188 48 48 v 2 c 0 26.507812 -21.492188 48 -48 48 s -48 -21.492188 -48 -48 v -2 c 0 -26.507812 21.492188 -48 48 -48 z m 0 0" fill="url(#d)"/>
    <path d="m 112 62 c 0 26.507812 -21.492188 48 -48 48 s -48 -21.492188 -48 -48 s 21.492188 -48 48 -48 s 48 21.492188 48 48 z m -48 -56 c -30.929688 0 -56 25.070312 -56 56 s 25.070312 56 56 56 s 56 -25.070312 56 -56 s -25.070312 -56 -56 -56 z m 0 4 c 28.71875 0 52 23.28125 52 52 s -23.28125 52 -52 52 s -52 -23.28125 -52 -52 s 23.28125 -52 52 -52 z m 0 0" fill="url(#e)"/>
    <path d="m 60 28 v 2.496094 c -8.171875 1.863281 -13.980469 9.121094 -14 17.503906 c 0 9.941406 8.058594 18 18 18 c 4.417969 0 8 3.582031 8 8 s -3.582031 8 -8 8 c -3.734375 0 -6.871094 -2.558594 -7.753906 -6.019531 c -0.269532 -1.070313 -1.140625 -1.980469 -2.246094 -1.980469 h -6 c -1.105469 0 -2.007812 0.898438 -1.882812 1.996094 c 0.851562 7.519531 6.367187 13.792968 13.882812 15.507812 v 2.496094 c 0 1.105469 0.894531 2 2 2 h 4 c 1.105469 0 2 -0.894531 2 -2 v -2.496094 c 8.171875 -1.863281 13.980469 -9.121094 14 -17.503906 c 0 -9.941406 -8.058594 -18 -18 -18 c -4.417969 0 -8 -3.582031 -8 -8 s 3.582031 -8 8 -8 c 3.734375 0 6.871094 2.558594 7.753906 6.019531 c 0.269532 1.070313 1.140625 1.980469 2.246094 1.980469 h 6 c 1.105469 0 2.011719 -0.898438 1.890625 -1.996094 c -0.839844 -7.535156 -6.359375 -13.832031 -13.890625 -15.546875 v -2.457031 c 0 -1.105469 -0.894531 -2 -2 -2 h -4 c -1.105469 0 -2 0.894531 -2 2 z m 0 0" fill="#a17d00" fill-opacity="0.647059"/>
</svg>
