<?xml version="1.0" encoding="utf-8"?>
<svg id="duotone" viewBox="0 0 64 64" xmlns="http://www.w3.org/2000/svg">
  <path d="M 14.3 20.251 L 49.7 20.251 C 50.407 20.252 50.891 19.123 50.63 18.083 C 49.93 15.264 49.1 12.53 48.146 9.904 C 47.247 7.482 45.605 5.997 43.831 6 L 20.169 6 C 18.397 5.999 16.757 7.484 15.858 9.904 C 14.903 12.529 14.073 15.263 13.373 18.083 C 13.113 19.122 13.595 20.249 14.3 20.251 Z" style="fill: rgb(245, 250, 8);"/>
  <path d="M 49.7 43.202 L 14.3 43.202 C 13.593 43.201 13.109 44.373 13.37 45.453 C 14.07 48.382 14.9 51.22 15.855 53.946 C 16.754 56.46 18.396 58.002 20.169 58 L 43.831 58 C 45.603 58.001 47.243 56.459 48.142 53.946 C 49.097 51.22 49.927 48.382 50.627 45.453 C 50.887 44.374 50.405 43.204 49.7 43.202 Z" style="fill: rgb(245, 250, 8);"/>
  <path d="M 51.036 19.764 C 50.936 19.318 50.569 19.003 50.145 19 L 13.97 19 C 13.544 19 13.174 19.316 13.074 19.764 C 11.309 27.809 11.309 36.191 13.074 44.236 C 13.174 44.684 13.544 45 13.97 45 L 50.145 45 C 50.569 45 50.94 44.684 51.04 44.236 C 52.805 36.191 52.805 27.809 51.04 19.764 L 51.036 19.764 Z" style="fill: rgb(245, 250, 8);"/>
  <path d="M 51.436 21 L 12.674 21 C 11.962 21 11.518 20.121 11.874 19.418 C 12.039 19.092 12.344 18.891 12.674 18.891 L 51.436 18.891 C 52.147 18.891 52.591 19.769 52.235 20.473 C 52.071 20.799 51.766 21 51.436 21 Z" style="fill: rgb(54, 54, 54);"/>
  <path d="M 49.545 15 L 14.455 15 C 13.744 15 13.3 14.213 13.655 13.582 C 13.82 13.29 14.125 13.109 14.455 13.109 L 49.545 13.109 C 50.256 13.109 50.7 13.897 50.345 14.527 C 50.179 14.819 49.875 15 49.545 15 Z" style="fill: rgb(54, 54, 54);"/>
  <path d="M 49.64 50.782 L 14.031 50.782 C 13.31 50.782 12.859 50.039 13.219 49.446 C 13.386 49.17 13.696 49 14.031 49 L 49.64 49 C 50.362 49 50.813 49.742 50.453 50.336 C 50.285 50.611 49.976 50.782 49.64 50.782 Z" style="fill: rgb(54, 54, 54);"/>
  <path d="M 51.222 45 L 12.669 45 C 11.962 45 11.52 44.167 11.873 43.5 C 12.037 43.191 12.341 43 12.669 43 L 51.222 43 C 51.929 43 52.37 43.833 52.018 44.5 C 51.854 44.809 51.55 45 51.222 45 Z" style="fill: rgb(54, 54, 54);"/>
  <path d="M40.4,45c-.034,0-.069,0-.1-.005a1,1,0,0,1-.891-1.1A115.447,115.447,0,0,0,40,32a115.447,115.447,0,0,0-.6-11.9,1,1,0,1,1,1.989-.208A117.218,117.218,0,0,1,42,32a117.218,117.218,0,0,1-.608,12.1A1,1,0,0,1,40.4,45Z" style="fill:#363636"/>
  <path d="M23.6,45a1,1,0,0,1-.994-.9A117.218,117.218,0,0,1,22,32a117.218,117.218,0,0,1,.608-12.1A1,1,0,1,1,24.6,20.1,115.447,115.447,0,0,0,24,32a115.447,115.447,0,0,0,.6,11.9,1,1,0,0,1-.891,1.1C23.671,45,23.636,45,23.6,45Z" style="fill:#363636"/>
  <path d="M39.583,15a1,1,0,0,1-.985-.833c-.19-1.119-.381-2.1-.563-2.96a1,1,0,1,1,1.957-.414c.186.88.383,1.891.578,3.04a1,1,0,0,1-.819,1.153A.96.96,0,0,1,39.583,15Z" style="fill:#363636"/>
  <path d="M24.417,15a.96.96,0,0,1-.168-.014,1,1,0,0,1-.819-1.153c.2-1.149.392-2.16.578-3.04a1,1,0,1,1,1.957.414c-.182.857-.373,1.841-.563,2.96A1,1,0,0,1,24.417,15Z" style="fill:#363636"/>
  <path d="M39.015,54a1.056,1.056,0,0,1-.208-.021,1,1,0,0,1-.772-1.186c.182-.857.373-1.841.563-2.96a1,1,0,1,1,1.972.334c-.2,1.149-.392,2.16-.578,3.04A1,1,0,0,1,39.015,54Z" style="fill:#363636"/>
  <path d="M24.985,54a1,1,0,0,1-.977-.793c-.186-.88-.383-1.891-.578-3.04a1,1,0,0,1,1.972-.334c.19,1.119.381,2.1.563,2.96a1,1,0,0,1-.772,1.186A1.056,1.056,0,0,1,24.985,54Z" style="fill:#363636"/>
</svg>